<?xml version="1.0" encoding="UTF-8"?>
<svg id="Layer_1" xmlns="http://www.w3.org/2000/svg" version="1.1" viewBox="0 0 75 75">
  <!-- Generator: Adobe Illustrator 29.1.0, SVG Export Plug-In . SVG Version: 2.1.0 Build 142)  -->
  <defs>
    <style>
      .st0 {
        fill: #1f3d73;
      }

      .st1 {
        fill: #f9c014;
      }

      .st2 {
        fill: #6789ad;
      }

      .st3 {
        fill: #fbce36;
      }

      .st4 {
        fill: #cdd8e4;
      }

      .st5 {
        fill: #fdebb1;
      }
    </style>
  </defs>
  <path class="st4" d="M73.4,37.4c0,20-16.3,36.2-36.5,36.2S.4,57.4.4,37.4,16.7,1.2,36.9,1.2s36.5,16.2,36.5,36.2"/>
  <path class="st5" d="M50.8,3.9C39.5-.5,30.6,1.8,30.6,1.8c0,0-.5,1.4-.1,2.5.4,1.2-1.2.8-.4,2,.8,1.2-1.6,1.6-3.6,4.3-2,2.8,0,0-1.2,2s-.4,1.6-2.4,3.2-2.4,1.6-4.3,2.4c-2,.8-3.9,2.7-3.9,2.7l-8.5,30.2-1.7,3.2s9.3,19.4,32.4,19.3c0,0,7,.4,15.4-3.4l-1.4-61.3V3.9h-.1Z"/>
  <path class="st2" d="M4.5,33.5s-.6-1.3.9-.7c0,0,.7-.3,0-.7,0,0-1.7-.9-.2-1.9,0,0,1-.5,1.3-.8l.2-1.4h.3v-1.9s-1.3-.7.2-1.2c0,0,.7-1.1,4.1-1.3,0,0,.8-.9,1.4-.7,0,0,.6-.9,1-.9,0,0,.6.3,1,1,0,0,1.1.3,1.2.9,0,0,1.4.2,2.1,1.4,0,0,.9.2.9-.1,0,0,.1-.7,1.6,1l.3,1.1,1.9.2.2.5h3.6c0,.1.5-.8.5-.8,0,0,.1-.8,2.8,1.8h1c0,.1.2.8.2.8l1.5.2s.5.4-1.7.3v.9c.1,0,1.2.5,1.8,1.2v2.3s-.7-.2-1.2,1.1v1.2c-.1,0-3.5,5.5-8.8,6.6,0,0-2.2.7-4.6,2.1,0,0-1.9,1.4-2,1.7l-.2,1.8s-.4,1.1-1,1.2c0,0,.2,1.6-.3,1.6,0,0,1.1,1.7-.9,1.8,0,0-.6.3-.9,1.2,0,0-1.1,1.5-2.7-.7,0,0,0-1.5-1.3-1.4,0,0-1,.3-2-1,0,0-1-.5-1.2,1,0,0-1.4.5-.3-1.1,0,0-.2-.8-.6-1,0,0-.5-1,.8-.3l.7-.2.2-1.3s-.9-1.3,0-1.4c0,0,.6,0,.6-1.3h.7v-1.3l.3-.3v-1.2c0,0,.5,0,.5,0v-1c.1,0-.2-.2-.2-.2l-.2-.6v-1.1l.2-.4v-.4h-.4l-.4,2.5-.5-1.5-.2.8v.3l-.2.2v.5l-.7.3v.4h-1.2s-1.3-.8-1.5-1.4c0,0-1.5,0-.7-1.4l.7-.2s.4-1.4-.5-1.7c0,0-.5-1.2,0-1l.2-1.3-.5-.5v-1.5s1.6,0,1.8-.7"/>
  <path class="st0" d="M37.2,1.3c20.1,0,36.5,16.2,36.5,36.2s-16.3,36.2-36.5,36.2"/>
  <path class="st0" d="M37.2,1.9c4.8,0,9.5.9,14,2.8,4.3,1.8,8.1,4.4,11.4,7.6,3.3,3.3,5.9,7.1,7.7,11.3,1.9,4.4,2.8,9.1,2.8,13.9s-.9,9.5-2.8,13.9c-1.8,4.2-4.4,8.1-7.7,11.3-3.3,3.3-7.1,5.8-11.4,7.6-4.4,1.9-9.1,2.8-14,2.8v1.2c5,0,9.9-1,14.4-2.9,4.4-1.8,8.4-4.5,11.8-7.9s6.1-7.3,8-11.7c1.9-4.5,2.9-9.4,2.9-14.3s-1-9.8-2.9-14.3c-1.9-4.4-4.5-8.3-8-11.7-3.4-3.4-7.4-6.1-11.8-7.9-4.6-1.9-9.4-2.9-14.4-2.9,0,0,0,1.2,0,1.2Z"/>
  <path class="st1" d="M40.2,28.9l.2-1.8.2-2.4s1.3-2.6,3-4.2l.7,1.5s-1.7,2.9,2.6,1.6l3.5-1.7s5.2,5.2,6.6.5l1.8-.2s1.4-2.8,3-.3v1s.2.3,1.6.5c0,0,1.4,3.5-1.2,6.8l.2,2.6,2.3,2.8.2,2.6s.3.5,1-1c0,0,1.6-5.5,5.6-2.6l-.2,1.6s-1.2-2.1-2.8-.9c0,0-1.2,1.2-1.9,2.8,0,0,1.9,1.2,0,3.1l.5.7s1.4-1.6.9-3.6c0,0-.9-2.6,1.6-1.2,0,0,1.4,1.4-.7,6.2,0,0-1.2,1.6-1.4,2.1-.2.5-.3,2.1-2.3.2,0,0,.5,3.6-1.2,4.2v4s.2,4.2-6.8,4.2v-1.4l4-3.6s-2.4,2.4-3.3-.3c0,0-.7-4,.2-4.3v-2.2s-3.5-1.6-4.4-3.3c0,0,.2,1.7,1.7,2.6,0,0,2.1,1.6,1,2.6,0,0-1.7.2-2.1,1,0,0-4.2.3-4.7-.3,0,0,.5-2.4,2.8-3.1,0,0-5.1,2.4-6.5-.9,0,0,.9,2.4-.7,2.4,0,0-2.8-.3-.5-2.9,0,0,1.6-1.6-.2-1.9l-2.6,1.9s-1.6.9-1-1.6c0,0-1.4-2.9-.9-4.3-.2-.5-.4-6.9.2-9.5"/>
  <path class="st3" d="M46.5,51.1s-.9-4-2.6-.7c0,0,.7,1.4,1.4,1.9l.2,1.4s.7,1.7,5.6,2.4c0,0,4.2,1,5.9-2.9,0,0,.2-2.6-1.9-3.8,0,0-8.4-1.2-7.7.2,0,0-.3.9,2.6.9,0,0-1.4.7-.9,1.2,0,0-2.3.6-2.6-.6"/>
  <path class="st0" d="M41.1,27.1s.5,2.1,1.2,2.6c0,0,.7.9-.7.9,0,0,.2,2.6,1.4,2.6l4,.5s1.7,1.7.5,3.1l-.5,2.1s-.9,0-1.6-2.3h-2.8s-3.1,1-1-1v-.7l-1.2-.2v-2.9l.4-1.4s.3-3.3.3-3.3Z"/>
  <path class="st0" d="M49.3,34.1s1.4,2.9,3.1,3.1h1.4s1.9.7,2.8-.2c0,0,1-.3,1.4.7,0,0,1.2,1,.7-.5l1.2-.3s-1.6-1-2.6-2.4c0,0-7.2.8-8-.4"/>
  <path class="st0" d="M12.9,54.2c-5.3,1.2-7.1,2.1-7.2,2.2l.6,1.1s1.8-.9,7-2.1c4.8-1.1,12.8-2.5,24.1-2.6v-1.2c-11.5,0-19.6,1.5-24.5,2.6"/>
  <path class="st0" d="M6,18.2s1.8,1.1,7,2.3c4.8,1.1,12.9,2.5,24.3,2.6v-1.2c-11.2-.2-19.2-1.5-23.9-2.6-5.1-1.2-6.8-2.2-6.9-2.3,0,0-.5,1.2-.5,1.2Z"/>
  <path class="st0" d="M24.7,71.9l1.1.6c2.1-4,6.8-5.3,11.2-5.3s5,.6,7.2,1.7c2.1,1.1,2.7,1.4,3.8,3.2l1-.6c-1.2-2-2-2.4-4.2-3.6-2.3-1.2-5-1.8-7.7-1.8-4.9,0-10.1,1.4-12.4,5.8"/>
  <path class="st0" d="M44.5,7c-2.2,1.2-4.8,1.9-7.5,1.9-5.3,0-9.8-1.8-11.9-5.8l-1.1.6c2.3,4.3,7.2,6.4,13,6.4s10.2-2,12.4-6.4l-1.1-.5c-.9,1.9-1.6,2.6-3.8,3.8"/>
  <path class="st0" d="M14.4,17.7c-2.8,5.9-4.3,12.8-4.3,19.9s1.6,14.3,4.5,20.3c2.9,5.9,6.9,10.5,11.7,13.4l.6-1c-9.5-5.7-15.6-18.5-15.6-32.7s1.5-13.6,4.2-19.4c2.7-5.6,6.4-10.1,10.9-12.9l-.7-1c-4.6,3-8.5,7.6-11.3,13.4"/>
  <path class="st0" d="M23.4,37.5c0,12,2.7,23.1,7.5,30.5l1-.6c-2.2-3.4-4-7.9-5.3-12.9-1.3-5.3-2-11-2-16.9,0-11.1,2.4-21.7,6.7-28.9l-1-.6c-4.5,7.3-6.9,18-6.9,29.4"/>
  <rect class="st0" x=".5" y="37.4" width="38" height="1.2"/>
  <path class="st0" d="M23.1,70.1c-4.3-1.8-8.1-4.3-11.4-7.6-3.3-3.2-5.9-7-7.7-11.2-1.9-4.4-2.8-9-2.8-13.8s.9-9.4,2.8-13.8c1.8-4.2,4.4-8,7.7-11.3s7.1-5.8,11.4-7.6c4.2-1.8,8.7-2.7,13.4-2.8v70.9c-4.6,0-9.1-1-13.4-2.8M37.1.8c-5,0-9.9,1-14.4,2.9-4.4,1.8-8.4,4.5-11.8,7.9-3.4,3.4-6.1,7.3-8,11.6C1,27.7,0,32.5,0,37.5s1,9.7,2.9,14.3c1.9,4.4,4.5,8.3,8,11.6,3.4,3.4,7.4,6,11.8,7.9,4.6,1.9,9.4,2.9,14.4,2.9h.6V.8h-.6Z"/>
</svg>